<svg width="218" height="115" viewBox="0 0 218 115" fill="none" xmlns="http://www.w3.org/2000/svg">
<mask id="mask0_301_2" style="mask-type:alpha" maskUnits="userSpaceOnUse" x="0" y="0" width="218" height="115">
<rect width="217.995" height="115" rx="7" fill="#5CE0D8"/>
</mask>
<g mask="url(#mask0_301_2)">
<rect width="217.995" height="115" rx="7" fill="#FE80AD"/>
<path d="M-0.631868 0H217.995L110.577 92.2527L-0.631868 0Z" fill="#DF6DBF"/>
<path d="M-0.631868 0H217.995L110.577 77.7198L-0.631868 0Z" fill="#FD96E0"/>
<path d="M217.994 115L-0.631879 115L106.786 59.3956L217.994 115Z" fill="#FD96E0"/>
<path fill-rule="evenodd" clip-rule="evenodd" d="M108.417 86.9288C108.313 87.0062 108.259 87.0462 108.259 87.0462V86.8103C104.778 84.1934 73.9839 60.5226 87.407 51.9781C100.386 43.7166 107.309 56.9021 108.416 59.2621C109.521 56.9066 116.445 43.712 129.426 51.9759C142.848 60.521 112.056 84.1932 108.575 86.8103V87.0462C108.575 87.0462 108.52 87.0062 108.417 86.9288Z" fill="#F44298"/>
</g>
</svg>
