<svg width="218" height="115" viewBox="0 0 218 115" fill="none" xmlns="http://www.w3.org/2000/svg">
<mask id="mask0_102_13" style="mask-type:alpha" maskUnits="userSpaceOnUse" x="0" y="0" width="218" height="115">
<rect width="217.995" height="115" rx="7" fill="#5CE0D8"/>
</mask>
<g mask="url(#mask0_102_13)">
<rect width="217.995" height="115" rx="7" fill="#5CE0D8"/>
<path d="M-0.631866 0H217.995L110.577 92.2527L-0.631866 0Z" fill="#5ED1CA"/>
<path d="M-0.631866 0H217.995L110.577 77.7198L-0.631866 0Z" fill="#96D8FD"/>
<path d="M217.995 115L-0.631864 115L106.786 59.3956L217.995 115Z" fill="#96D8FD"/>
<path fill-rule="evenodd" clip-rule="evenodd" d="M108.417 86.9287C108.313 87.0062 108.259 87.0462 108.259 87.0462V86.8103C104.778 84.1934 73.9839 60.5225 87.407 51.978C100.386 43.7166 107.309 56.902 108.416 59.262C109.521 56.9065 116.445 43.7119 129.426 51.9759C142.848 60.5209 112.056 84.1931 108.575 86.8102V87.0462C108.575 87.0462 108.52 87.0062 108.417 86.9287Z" fill="#4294F4"/>
</g>
</svg>
